<?xml version="1.0" encoding="UTF-8" standalone="no"?>
<svg xmlns:dc="http://purl.org/dc/elements/1.1/" xmlns:cc="http://creativecommons.org/ns#" xmlns:rdf="http://www.w3.org/1999/02/22-rdf-syntax-ns#" xmlns:svg="http://www.w3.org/2000/svg" xmlns="http://www.w3.org/2000/svg" xmlns:sodipodi="http://sodipodi.sourceforge.net/DTD/sodipodi-0.dtd" xmlns:inkscape="http://www.inkscape.org/namespaces/inkscape" viewBox="0 0 487.86335 157.3663" width="5.4207153in" height="1.7485144in" id="svg5301" version="1.1" inkscape:version="0.91 r13725" sodipodi:docname="Powered by Toolforge.svg" inkscape:export-xdpi="22.876562" inkscape:export-ydpi="22.876562" inkscape:export-filename="/Users/bender/Desktop/forge/official/Powered by Toolforge.png">
  <metadata id="metadata13">
    <rdf:RDF>
      <cc:Work rdf:about="">
        <dc:format>image/svg+xml</dc:format>
        <dc:type rdf:resource="http://purl.org/dc/dcmitype/StillImage"/>
        <dc:title/>
      </cc:Work>
    </rdf:RDF>
  </metadata>
  <defs id="defs5307"/>
  <sodipodi:namedview pagecolor="#ffffff" bordercolor="#666666" borderopacity="1" objecttolerance="10" gridtolerance="10" guidetolerance="10" inkscape:pageopacity="0" inkscape:pageshadow="2" inkscape:window-width="1467" inkscape:window-height="918" id="namedview5305" showgrid="false" showborder="false" inkscape:zoom="1.7012925" inkscape:cx="243.93219" inkscape:cy="78.68315" inkscape:window-x="14" inkscape:window-y="0" inkscape:window-maximized="0" inkscape:current-layer="svg5301" fit-margin-top="0.125" fit-margin-left="0.125" fit-margin-right="0.125" fit-margin-bottom="0.125" inkscape:document-units="in" units="in" showguides="true" inkscape:guide-bbox="true"/>
  <g id="g4238" transform="translate(11.268227,11.183149)">
    <path id="path4899" d="m 37.067819,52.025557 0,9.167908 -37.057251,0 c 0,0 -1.057342,15.82975 9.52828,23.327005 11.61597,8.2302 27.528971,11.66529 27.528971,11.66529 l 0,5.83445 20.725094,0 c 1.349831,1.05072 2.36765,2.61336 2.36765,4.96234 0,4.1268 -3.543577,5.69037 -6.230857,6.28492 l -16.865504,0 0,21.66568 117.510698,0 0,-21.66568 -19.58631,0 c 0,0 -2.6486,-22.08048 19.58271,-34.57786 9.15902,-5.152148 25.40995,-7.499373 25.40995,-7.499373 l 0,-9.996772 -25.40635,0 0,-9.167908 -117.507081,0 z" style="display:inline;opacity:1;fill:#339966;fill-opacity:1;fill-rule:nonzero;stroke:none;stroke-width:1;stroke-linecap:round;stroke-linejoin:round;stroke-miterlimit:4;stroke-dasharray:none;stroke-opacity:1" inkscape:connector-curvature="0"/>
    <path id="path4891" d="M 92.583408,0.607414 63.886826,5.202172 66.73738,26.233593 74.427761,46.454179 103.12794,41.863018 101.8378,26.957948 157.56961,20.136064 152.67213,2.02007 98.543968,14.034936 92.583408,0.607414 Z" style="display:inline;opacity:1;fill:#006699;fill-opacity:1;fill-rule:nonzero;stroke:none;stroke-width:1;stroke-linecap:round;stroke-linejoin:round;stroke-miterlimit:4;stroke-dasharray:none;stroke-opacity:1" inkscape:connector-curvature="0"/>
    <path d="m 17.593213,0.066851 -5.654278,3.264985 0.789229,0.796425 a 99.885437,100.1244 0 0 1 0.03247,-0.04317 l 8.504813,8.162452 8.050749,0 -9.290426,-12.180631 -2.432524,0 z m 30.300222,3.492026 -18.577272,0.648668 12.796881,17.870945 -5.365961,0.324332 22.703536,23.391857 7.016488,0 -13.002296,-19.89983 5.62184,0.126203 L 47.893435,3.558951 Z M 22.710526,17.206225 11.153322,17.526962 51.194473,44.81808 22.710526,17.206225 Z m 0.410814,20.872853 -4.180327,7.715601 20.281825,0 -16.101498,-7.715601 z" style="display:inline;opacity:1;fill:#990000;fill-opacity:1;fill-rule:nonzero;stroke:none;stroke-width:1;stroke-linecap:round;stroke-linejoin:round;stroke-miterlimit:4;stroke-dasharray:none;stroke-opacity:1" id="path4889" inkscape:connector-curvature="0"/>
  </g>
  <g id="g4677">
    <g id="g4370" transform="translate(15.542278,13.856898)">
      <path id="path4284" style="font-style:normal;font-variant:normal;font-weight:normal;font-stretch:normal;font-size:40px;line-height:125%;font-family:Montserrat;-inkscape-font-specification:'Montserrat, Normal';text-align:start;letter-spacing:0px;word-spacing:0px;writing-mode:lr-tb;text-anchor:start;fill:#000000;fill-opacity:1;stroke:none;stroke-width:1px;stroke-linecap:butt;stroke-linejoin:miter;stroke-opacity:1" d="m 202.33251,98.175399 21.88,0 0,3.520001 -9.04,0 0,24.48 -3.84,0 0,-24.48 -9,0 0,-3.520001 z" inkscape:connector-curvature="0"/>
      <path id="path4286" style="font-style:normal;font-variant:normal;font-weight:normal;font-stretch:normal;font-size:40px;line-height:125%;font-family:Montserrat;-inkscape-font-specification:'Montserrat, Normal';text-align:start;letter-spacing:0px;word-spacing:0px;writing-mode:lr-tb;text-anchor:start;fill:#000000;fill-opacity:1;stroke:none;stroke-width:1px;stroke-linecap:butt;stroke-linejoin:miter;stroke-opacity:1" d="m 239.03189,97.935399 q 4.04,0 7.4,1.88 3.4,1.880001 5.36,5.160001 1.96,3.24 1.96,7.16 0,3.92 -1.96,7.24 -1.96,3.28 -5.36,5.2 -3.36,1.88 -7.4,1.88 -4.04,0 -7.44,-1.88 -3.36,-1.92 -5.32,-5.2 -1.96,-3.32 -1.96,-7.24 0,-3.92 1.96,-7.16 1.96,-3.28 5.32,-5.160001 3.36,-1.88 7.44,-1.88 z m 0.04,3.440001 q -2.92,0 -5.44,1.44 -2.48,1.44 -3.96,3.92 -1.48,2.44 -1.48,5.4 0,2.96 1.48,5.44 1.48,2.48 3.96,3.96 2.52,1.44 5.44,1.44 2.92,0 5.36,-1.44 2.48,-1.48 3.92,-3.96 1.48,-2.48 1.48,-5.44 0,-2.96 -1.48,-5.4 -1.44,-2.48 -3.92,-3.92 -2.44,-1.44 -5.36,-1.44 z" inkscape:connector-curvature="0"/>
      <path id="path4288" style="font-style:normal;font-variant:normal;font-weight:normal;font-stretch:normal;font-size:40px;line-height:125%;font-family:Montserrat;-inkscape-font-specification:'Montserrat, Normal';text-align:start;letter-spacing:0px;word-spacing:0px;writing-mode:lr-tb;text-anchor:start;fill:#000000;fill-opacity:1;stroke:none;stroke-width:1px;stroke-linecap:butt;stroke-linejoin:miter;stroke-opacity:1" d="m 270.59439,97.935399 q 4.04,0 7.4,1.88 3.4,1.880001 5.36,5.160001 1.96,3.24 1.96,7.16 0,3.92 -1.96,7.24 -1.96,3.28 -5.36,5.2 -3.36,1.88 -7.4,1.88 -4.04,0 -7.44,-1.88 -3.36,-1.92 -5.32,-5.2 -1.96,-3.32 -1.96,-7.24 0,-3.92 1.96,-7.16 1.96,-3.28 5.32,-5.160001 3.36,-1.88 7.44,-1.88 z m 0.04,3.440001 q -2.92,0 -5.44,1.44 -2.48,1.44 -3.96,3.92 -1.48,2.44 -1.48,5.4 0,2.96 1.48,5.44 1.48,2.48 3.96,3.96 2.52,1.44 5.44,1.44 2.92,0 5.36,-1.44 2.48,-1.48 3.92,-3.96 1.48,-2.48 1.48,-5.44 0,-2.96 -1.48,-5.4 -1.44,-2.48 -3.92,-3.92 -2.44,-1.44 -5.36,-1.44 z" inkscape:connector-curvature="0"/>
      <path id="path4290" style="font-style:normal;font-variant:normal;font-weight:normal;font-stretch:normal;font-size:40px;line-height:125%;font-family:Montserrat;-inkscape-font-specification:'Montserrat, Normal';text-align:start;letter-spacing:0px;word-spacing:0px;writing-mode:lr-tb;text-anchor:start;fill:#000000;fill-opacity:1;stroke:none;stroke-width:1px;stroke-linecap:butt;stroke-linejoin:miter;stroke-opacity:1" d="m 290.77626,98.175399 3.84,0 0,24.520001 12.24,0 0,3.48 -16.08,0 0,-28.000001 z" inkscape:connector-curvature="0"/>
      <path id="path4292" style="font-style:normal;font-variant:normal;font-weight:normal;font-stretch:normal;font-size:40px;line-height:125%;font-family:Montserrat;-inkscape-font-specification:'Montserrat, Normal';text-align:start;letter-spacing:0px;word-spacing:0px;writing-mode:lr-tb;text-anchor:start;fill:#000000;fill-opacity:1;stroke:none;stroke-width:1px;stroke-linecap:butt;stroke-linejoin:miter;stroke-opacity:1" d="m 311.71376,98.175399 18.24,0 -0.04,3.480001 -14.36,0 0,9.2 12.92,0 0,3.48 -12.92,0 0,11.84 -3.84,0 0,-28.000001 z" inkscape:connector-curvature="0"/>
      <path id="path4294" style="font-style:normal;font-variant:normal;font-weight:normal;font-stretch:normal;font-size:40px;line-height:125%;font-family:Montserrat;-inkscape-font-specification:'Montserrat, Normal';text-align:start;letter-spacing:0px;word-spacing:0px;writing-mode:lr-tb;text-anchor:start;fill:#000000;fill-opacity:1;stroke:none;stroke-width:1px;stroke-linecap:butt;stroke-linejoin:miter;stroke-opacity:1" d="m 346.68814,97.935399 q 4.04,0 7.4,1.88 3.4,1.880001 5.36,5.160001 1.96,3.24 1.96,7.16 0,3.92 -1.96,7.24 -1.96,3.28 -5.36,5.2 -3.36,1.88 -7.4,1.88 -4.04,0 -7.44,-1.88 -3.36,-1.92 -5.32,-5.2 -1.96,-3.32 -1.96,-7.24 0,-3.92 1.96,-7.16 1.96,-3.28 5.32,-5.160001 3.36,-1.88 7.44,-1.88 z m 0.04,3.440001 q -2.92,0 -5.44,1.44 -2.48,1.44 -3.96,3.92 -1.48,2.44 -1.48,5.4 0,2.96 1.48,5.44 1.48,2.48 3.96,3.96 2.52,1.44 5.44,1.44 2.92,0 5.36,-1.44 2.48,-1.48 3.92,-3.96 1.48,-2.48 1.48,-5.44 0,-2.96 -1.48,-5.4 -1.44,-2.48 -3.92,-3.92 -2.44,-1.44 -5.36,-1.44 z" inkscape:connector-curvature="0"/>
      <path id="path4296" style="font-style:normal;font-variant:normal;font-weight:normal;font-stretch:normal;font-size:40px;line-height:125%;font-family:Montserrat;-inkscape-font-specification:'Montserrat, Normal';text-align:start;letter-spacing:0px;word-spacing:0px;writing-mode:lr-tb;text-anchor:start;fill:#000000;fill-opacity:1;stroke:none;stroke-width:1px;stroke-linecap:butt;stroke-linejoin:miter;stroke-opacity:1" d="m 384.95001,126.1754 -5.56,-8.8 q -0.96,0.08 -1.56,0.08 l -7.12,0 0,8.72 -3.84,0 0,-28.000001 10.96,0 q 5.32,0 8.2,2.480001 2.92,2.44 2.92,6.96 0,3.4 -1.6,5.72 -1.56,2.32 -4.52,3.36 l 6.52,9.48 -4.4,0 z m -7.12,-12.2 q 3.6,0 5.52,-1.56 1.92,-1.6 1.92,-4.68 0,-3 -1.92,-4.52 -1.92,-1.56 -5.52,-1.56 l -7.12,0 0,12.32 7.12,0 z" inkscape:connector-curvature="0"/>
      <path id="path4298" style="font-style:normal;font-variant:normal;font-weight:normal;font-stretch:normal;font-size:40px;line-height:125%;font-family:Montserrat;-inkscape-font-specification:'Montserrat, Normal';text-align:start;letter-spacing:0px;word-spacing:0px;writing-mode:lr-tb;text-anchor:start;fill:#000000;fill-opacity:1;stroke:none;stroke-width:1px;stroke-linecap:butt;stroke-linejoin:miter;stroke-opacity:1" d="m 415.13626,112.4954 3.4,0 0,10.28 q -2.12,1.68 -4.96,2.68 -2.84,1 -5.64,1 -4.04,0 -7.4,-1.88 -3.36,-1.92 -5.32,-5.2 -1.92,-3.32 -1.92,-7.24 0,-3.92 1.96,-7.16 1.96,-3.28 5.36,-5.160001 3.4,-1.88 7.52,-1.88 2.92,0 5.68,1.04 2.8,1.040001 4.84,2.840001 l -2.2,2.8 q -1.68,-1.56 -3.88,-2.4 -2.16,-0.88 -4.44,-0.88 -3,0 -5.52,1.44 -2.52,1.44 -4,3.92 -1.44,2.48 -1.44,5.44 0,2.96 1.48,5.48 1.48,2.48 4,3.96 2.52,1.44 5.52,1.44 1.76,0 3.56,-0.56 1.84,-0.6 3.4,-1.64 l 0,-8.32 z" inkscape:connector-curvature="0"/>
      <path id="path4300" style="font-style:normal;font-variant:normal;font-weight:normal;font-stretch:normal;font-size:40px;line-height:125%;font-family:Montserrat;-inkscape-font-specification:'Montserrat, Normal';text-align:start;letter-spacing:0px;word-spacing:0px;writing-mode:lr-tb;text-anchor:start;fill:#000000;fill-opacity:1;stroke:none;stroke-width:1px;stroke-linecap:butt;stroke-linejoin:miter;stroke-opacity:1" d="m 425.77626,98.175399 19.44,0 0,3.480001 -15.6,0 0,8.64 13.96,0 0,3.48 -13.96,0 0,8.92 16.08,0 0,3.48 -19.92,0 0,-28.000001 z" inkscape:connector-curvature="0"/>
    </g>
    <g transform="translate(35.445118,37.741551)" id="text4424" style="font-style:normal;font-variant:normal;font-weight:normal;font-stretch:normal;font-size:22.5px;line-height:125%;font-family:Montserrat;-inkscape-font-specification:'Montserrat, Normal';text-align:start;letter-spacing:0px;word-spacing:0px;writing-mode:lr-tb;text-anchor:start;fill:#000000;fill-opacity:1;stroke:none;stroke-width:1px;stroke-linecap:butt;stroke-linejoin:miter;stroke-opacity:1">
      <path inkscape:connector-curvature="0" id="path4429" style="font-style:normal;font-variant:normal;font-weight:normal;font-stretch:normal;font-size:30px;line-height:125%;font-family:Montserrat;-inkscape-font-specification:'Montserrat, Normal';text-align:start;writing-mode:lr-tb;text-anchor:start" d="m 209.76553,-20.507549 q 3.93,0 6.06,1.86 2.16,1.86 2.16,5.22 0,3.5100004 -2.16,5.4600004 -2.16,1.92 -6.06,1.92 l -5.22,0 0,6.53999997 -2.88,0 0,-21.00000037 8.1,0 z m -0.12,11.8500004 q 2.7,0 4.14,-1.17 1.44,-1.2000004 1.44,-3.5100004 0,-2.25 -1.44,-3.39 -1.44,-1.17 -4.14,-1.17 l -5.1,0.03 0,9.2100004 5.1,0 z"/>
      <path inkscape:connector-curvature="0" id="path4431" style="font-style:normal;font-variant:normal;font-weight:normal;font-stretch:normal;font-size:30px;line-height:125%;font-family:Montserrat;-inkscape-font-specification:'Montserrat, Normal';text-align:start;writing-mode:lr-tb;text-anchor:start" d="m 230.94318,-20.687549 q 3.03,0 5.55,1.41 2.55,1.41 4.02,3.87 1.47,2.43 1.47,5.37 0,2.9400004 -1.47,5.4300004 -1.47,2.46 -4.02,3.89999997 -2.52,1.41 -5.55,1.41 -3.03,0 -5.58,-1.41 -2.52,-1.43999997 -3.99,-3.89999997 -1.47,-2.49 -1.47,-5.4300004 0,-2.94 1.47,-5.37 1.47,-2.46 3.99,-3.87 2.52,-1.41 5.58,-1.41 z m 0.03,2.58 q -2.19,0 -4.08,1.08 -1.86,1.08 -2.97,2.94 -1.11,1.83 -1.11,4.05 0,2.2200004 1.11,4.0800004 1.11,1.86 2.97,2.97 1.89,1.08 4.08,1.08 2.19,0 4.02,-1.08 1.86,-1.11 2.94,-2.97 1.11,-1.86 1.11,-4.0800004 0,-2.22 -1.11,-4.05 -1.08,-1.86 -2.94,-2.94 -1.83,-1.08 -4.02,-1.08 z"/>
      <path inkscape:connector-curvature="0" id="path4433" style="font-style:normal;font-variant:normal;font-weight:normal;font-stretch:normal;font-size:30px;line-height:125%;font-family:Montserrat;-inkscape-font-specification:'Montserrat, Normal';text-align:start;writing-mode:lr-tb;text-anchor:start" d="m 271.04662,-20.507549 3,0 -7.11,21.00000037 -3,0 -5.43,-17.34000037 -5.52,17.34000037 -2.97,0 -7.08,-21.00000037 3.09,0 5.55,17.9100004 5.52,-17.9100004 2.88,0 5.55,17.9100004 5.52,-17.9100004 z"/>
      <path inkscape:connector-curvature="0" id="path4435" style="font-style:normal;font-variant:normal;font-weight:normal;font-stretch:normal;font-size:30px;line-height:125%;font-family:Montserrat;-inkscape-font-specification:'Montserrat, Normal';text-align:start;writing-mode:lr-tb;text-anchor:start" d="m 277.19287,-20.507549 14.58,0 0,2.61 -11.7,0 0,6.48 10.47,0 0,2.6100004 -10.47,0 0,6.69 12.06,0 0,2.60999997 -14.94,0 0,-21.00000037 z"/>
      <path inkscape:connector-curvature="0" id="path4437" style="font-style:normal;font-variant:normal;font-weight:normal;font-stretch:normal;font-size:30px;line-height:125%;font-family:Montserrat;-inkscape-font-specification:'Montserrat, Normal';text-align:start;writing-mode:lr-tb;text-anchor:start" d="m 310.32318,0.49245137 -4.17,-6.59999997 q -0.72,0.06 -1.17,0.06 l -5.34,0 0,6.53999997 -2.88,0 0,-21.00000037 8.22,0 q 3.99,0 6.15,1.86 2.19,1.83 2.19,5.22 0,2.55 -1.2,4.2900004 -1.17,1.74 -3.39,2.52 l 4.89,7.10999997 -3.3,0 z m -5.34,-9.14999997 q 2.7,0 4.14,-1.17 1.44,-1.2000004 1.44,-3.5100004 0,-2.25 -1.44,-3.39 -1.44,-1.17 -4.14,-1.17 l -5.34,0 0,9.2400004 5.34,0 z"/>
      <path inkscape:connector-curvature="0" id="path4439" style="font-style:normal;font-variant:normal;font-weight:normal;font-stretch:normal;font-size:30px;line-height:125%;font-family:Montserrat;-inkscape-font-specification:'Montserrat, Normal';text-align:start;writing-mode:lr-tb;text-anchor:start" d="m 318.44287,-20.507549 14.58,0 0,2.61 -11.7,0 0,6.48 10.47,0 0,2.6100004 -10.47,0 0,6.69 12.06,0 0,2.60999997 -14.94,0 0,-21.00000037 z"/>
      <path inkscape:connector-curvature="0" id="path4441" style="font-style:normal;font-variant:normal;font-weight:normal;font-stretch:normal;font-size:30px;line-height:125%;font-family:Montserrat;-inkscape-font-specification:'Montserrat, Normal';text-align:start;writing-mode:lr-tb;text-anchor:start" d="m 346.56318,-20.507549 q 3.06,0 5.52,1.38 2.49,1.35 3.9,3.75 1.41,2.4 1.41,5.37 0,2.9700004 -1.44,5.3700004 -1.41,2.4 -3.9,3.77999997 -2.49,1.35 -5.58,1.35 l -8.46,0 0,-21.00000037 8.55,0 z m 0.06,18.3900004 q 2.19,0 3.96,-1.02 1.8,-1.02 2.82,-2.82 1.05,-1.8 1.05,-4.02 0,-2.2500004 -1.05,-4.0500004 -1.05,-1.8 -2.88,-2.82 -1.8,-1.05 -4.02,-1.05 l -5.61,0 0,15.7800004 5.73,0 z"/>
      <path inkscape:connector-curvature="0" id="path4443" style="font-style:normal;font-variant:normal;font-weight:normal;font-stretch:normal;font-size:30px;line-height:125%;font-family:Montserrat;-inkscape-font-specification:'Montserrat, Normal';text-align:start;writing-mode:lr-tb;text-anchor:start" d="m 378.33084,-20.507549 q 3.21,0 5.04,1.41 1.86,1.38 1.86,3.84 0,1.8 -1.02,3.06 -1.02,1.23 -2.79,1.65 2.19,0.33 3.42,1.7700004 1.26,1.41 1.26,3.54 0,2.7 -2.04,4.23 -2.01,1.49999997 -5.58,1.49999997 l -9.12,0 0,-21.00000037 8.97,0 z m -0.15,8.91 q 1.95,0 3,-0.81 1.08,-0.84 1.08,-2.37 0,-1.5 -1.08,-2.31 -1.05,-0.81 -3,-0.78 l -5.94,0 0,6.27 5.94,0 z m 0,9.4500004 q 2.34,0.03 3.66,-0.87 1.32,-0.93 1.32,-2.58 0,-1.59 -1.32,-2.49 -1.32,-0.9 -3.66,-0.9 l -5.94,0 0,6.84 5.94,0 z"/>
      <path inkscape:connector-curvature="0" id="path4445" style="font-style:normal;font-variant:normal;font-weight:normal;font-stretch:normal;font-size:30px;line-height:125%;font-family:Montserrat;-inkscape-font-specification:'Montserrat, Normal';text-align:start;writing-mode:lr-tb;text-anchor:start" d="m 406.55756,-20.507549 -7.86,13.8000004 0,7.19999997 -2.88,0 0,-7.07999997 -7.98,-13.9200004 2.94,0 6.48,10.7100004 6.36,-10.7100004 2.94,0 z"/>
    </g>
    <g transform="translate(-9.1597072e-5,-5.8040015)" id="g4604">
      <path inkscape:connector-curvature="0" id="path4575" style="font-style:normal;font-variant:normal;font-weight:800;font-stretch:normal;font-size:40px;line-height:125%;font-family:Montserrat;-inkscape-font-specification:'Montserrat, Ultra-Bold';text-align:start;letter-spacing:0px;word-spacing:0px;writing-mode:lr-tb;text-anchor:start;fill:#000000;fill-opacity:1;stroke:none;stroke-width:1px;stroke-linecap:butt;stroke-linejoin:miter;stroke-opacity:1" d="m 239.53957,64.756883 8.52,0 -9.48,28.04 -8.56,0 -4.72,-17.96 -4.88,17.96 -8.52,0 -9.4,-28.04 8.88,0 5.04,19.48 5,-19.48 8.12,0 5.04,19.44 4.96,-19.44 z"/>
      <path inkscape:connector-curvature="0" id="path4577" style="font-style:normal;font-variant:normal;font-weight:800;font-stretch:normal;font-size:40px;line-height:125%;font-family:Montserrat;-inkscape-font-specification:'Montserrat, Ultra-Bold';text-align:start;letter-spacing:0px;word-spacing:0px;writing-mode:lr-tb;text-anchor:start;fill:#000000;fill-opacity:1;stroke:none;stroke-width:1px;stroke-linecap:butt;stroke-linejoin:miter;stroke-opacity:1" d="m 254.29207,64.756883 8.32,0 0,28.04 -8.32,0 0,-28.04 z"/>
      <path inkscape:connector-curvature="0" id="path4579" style="font-style:normal;font-variant:normal;font-weight:800;font-stretch:normal;font-size:40px;line-height:125%;font-family:Montserrat;-inkscape-font-specification:'Montserrat, Ultra-Bold';text-align:start;letter-spacing:0px;word-spacing:0px;writing-mode:lr-tb;text-anchor:start;fill:#000000;fill-opacity:1;stroke:none;stroke-width:1px;stroke-linecap:butt;stroke-linejoin:miter;stroke-opacity:1" d="m 299.29894,92.796883 -9.96,0 -6.56,-10.32 -3.12,3.44 0,6.88 -8.32,0 0,-28.04 8.32,0 0,11.24 9.4,-11.24 9.6,0 -10.2,11.36 10.84,16.68 z"/>
      <path inkscape:connector-curvature="0" id="path4581" style="font-style:normal;font-variant:normal;font-weight:800;font-stretch:normal;font-size:40px;line-height:125%;font-family:Montserrat;-inkscape-font-specification:'Montserrat, Ultra-Bold';text-align:start;letter-spacing:0px;word-spacing:0px;writing-mode:lr-tb;text-anchor:start;fill:#000000;fill-opacity:1;stroke:none;stroke-width:1px;stroke-linecap:butt;stroke-linejoin:miter;stroke-opacity:1" d="m 305.80769,64.756883 8.32,0 0,28.04 -8.32,0 0,-28.04 z"/>
      <path inkscape:connector-curvature="0" id="path4583" style="font-style:normal;font-variant:normal;font-weight:800;font-stretch:normal;font-size:40px;line-height:125%;font-family:Montserrat;-inkscape-font-specification:'Montserrat, Ultra-Bold';text-align:start;letter-spacing:0px;word-spacing:0px;writing-mode:lr-tb;text-anchor:start;fill:#000000;fill-opacity:1;stroke:none;stroke-width:1px;stroke-linecap:butt;stroke-linejoin:miter;stroke-opacity:1" d="m 322.85457,64.756883 8.92,0 7.52,15.56 7.48,-15.56 8.92,0 0,28.04 -7.32,0 0,-16.64 -6.4,13.88 -5.4,0 -6.4,-13.88 0,16.64 -7.32,0 0,-28.04 z"/>
      <path inkscape:connector-curvature="0" id="path4585" style="font-style:normal;font-variant:normal;font-weight:800;font-stretch:normal;font-size:40px;line-height:125%;font-family:Montserrat;-inkscape-font-specification:'Montserrat, Ultra-Bold';text-align:start;letter-spacing:0px;word-spacing:0px;writing-mode:lr-tb;text-anchor:start;fill:#000000;fill-opacity:1;stroke:none;stroke-width:1px;stroke-linecap:butt;stroke-linejoin:miter;stroke-opacity:1" d="m 364.35457,64.756883 22.92,0 0,6.4 -14.6,0 0,4.4 13.24,0 0,6.4 -13.24,0 0,4.44 15,0 0,6.4 -23.32,0 0,-28.04 z"/>
      <path inkscape:connector-curvature="0" id="path4587" style="font-style:normal;font-variant:normal;font-weight:800;font-stretch:normal;font-size:40px;line-height:125%;font-family:Montserrat;-inkscape-font-specification:'Montserrat, Ultra-Bold';text-align:start;letter-spacing:0px;word-spacing:0px;writing-mode:lr-tb;text-anchor:start;fill:#000000;fill-opacity:1;stroke:none;stroke-width:1px;stroke-linecap:butt;stroke-linejoin:miter;stroke-opacity:1" d="m 407.97832,64.756883 q 4.48,0 7.88,1.76 3.44,1.72 5.32,4.92 1.88,3.16 1.88,7.32 0,4.16 -1.92,7.36 -1.92,3.2 -5.4,4.96 -3.48,1.72 -8.04,1.72 l -12,0 0,-28.04 12.28,0 z m 0.24,21.52 q 2.84,0 4.6,-2.04 1.76,-2.04 1.76,-5.4 0,-3.36 -1.88,-5.44 -1.88,-2.08 -4.88,-2.08 l -3.8,0 0,14.96 4.2,0 z"/>
      <path inkscape:connector-curvature="0" id="path4589" style="font-style:normal;font-variant:normal;font-weight:800;font-stretch:normal;font-size:40px;line-height:125%;font-family:Montserrat;-inkscape-font-specification:'Montserrat, Ultra-Bold';text-align:start;letter-spacing:0px;word-spacing:0px;writing-mode:lr-tb;text-anchor:start;fill:#000000;fill-opacity:1;stroke:none;stroke-width:1px;stroke-linecap:butt;stroke-linejoin:miter;stroke-opacity:1" d="m 430.16707,64.756883 8.32,0 0,28.04 -8.32,0 0,-28.04 z"/>
      <path inkscape:connector-curvature="0" id="path4591" style="font-style:normal;font-variant:normal;font-weight:800;font-stretch:normal;font-size:40px;line-height:125%;font-family:Montserrat;-inkscape-font-specification:'Montserrat, Ultra-Bold';text-align:start;letter-spacing:0px;word-spacing:0px;writing-mode:lr-tb;text-anchor:start;fill:#000000;fill-opacity:1;stroke:none;stroke-width:1px;stroke-linecap:butt;stroke-linejoin:miter;stroke-opacity:1" d="m 467.73394,92.796883 -1.64,-4.48 -11.32,0 -1.68,4.48 -8.56,0 11.96,-28.04 8.56,0 11.56,28.04 -8.88,0 z m -10.64,-10.56 6.8,0 -3.36,-9.16 -3.44,9.16 z"/>
    </g>
  </g>
</svg>
