<svg viewBox="0 0 487.9 157.4" xmlns="http://www.w3.org/2000/svg"><path d="M37 52v9.2H0S-1 77 9.5 84.5c11.7 8.3 27.6 11.7 27.6 11.7v5.8h20.7a6 6 0 0 1 2.4 5c0 4.1-3.6 5.7-6.3 6.3H37.1v21.6h117.5v-21.6H135s-2.7-22.1 19.6-34.6c9.1-5.2 25.4-7.5 25.4-7.5v-10h-25.4V52H37z" fill="#396" transform="translate(11.3 11.2)"/><path d="M92.6.6 63.9 5.2l2.8 21 7.7 20.3 28.7-4.6-1.3-15 55.8-6.8-5-18-54 12-6-13.5z" fill="#069" transform="translate(11.3 11.2)"/><path d="m17.6 0-5.7 3.3.8.8 8.6 8.1h8L20 .1h-2.4zm30.3 3.6-18.6.6 12.8 17.9-5.4.3 22.8 23.4h7l-13-20 5.6.2L47.9 3.6zM22.7 17.2l-11.5.3 40 27.3-28.5-27.6zm.4 20.9L19 45.8h20.3l-16-7.7z" fill="#900" transform="translate(11.3 11.2)"/><path d="M202.3 98.2h22v3.5h-9.1v24.5h-3.9v-24.5h-9v-3.5zM239 98q4 0 7.4 1.8 3.4 1.9 5.4 5.2 2 3.2 2 7.1t-2 7.3q-2 3.3-5.4 5.2-3.3 1.9-7.4 1.9t-7.4-2q-3.4-1.8-5.3-5.1-2-3.3-2-7.3t2-7.1q2-3.3 5.3-5.2Q235 98 239 98zm0 3.4q-2.9 0-5.4 1.4-2.4 1.5-4 4-1.4 2.4-1.4 5.3t1.5 5.5 4 4q2.5 1.4 5.4 1.4t5.3-1.5q2.5-1.4 4-4 1.4-2.4 1.4-5.4t-1.5-5.4q-1.4-2.4-3.9-3.9-2.4-1.4-5.3-1.4zM270.6 98q4 0 7.4 1.8 3.4 1.9 5.3 5.2 2 3.2 2 7.1t-2 7.3q-2 3.3-5.3 5.2-3.4 1.9-7.4 1.9t-7.5-2q-3.3-1.8-5.3-5.1t-2-7.3 2-7.1q2-3.3 5.3-5.2 3.4-1.9 7.5-1.9zm0 3.4q-2.9 0-5.4 1.4-2.5 1.5-4 4-1.4 2.4-1.4 5.3t1.4 5.5 4 4q2.5 1.4 5.4 1.4t5.4-1.5q2.5-1.4 4-4 1.4-2.4 1.4-5.4t-1.5-5.4q-1.4-2.4-4-3.9-2.3-1.4-5.3-1.4zM290.8 98.2h3.8v24.5H307v3.5h-16.1v-28zM311.7 98.2H330v3.5h-14.4v9.2h13v3.4h-13v11.9h-3.8v-28zM346.7 98q4 0 7.4 1.8 3.4 1.9 5.3 5.2 2 3.2 2 7.1t-2 7.3q-2 3.3-5.3 5.2-3.4 1.9-7.4 1.9t-7.4-2q-3.4-1.8-5.4-5.1-2-3.3-2-7.3t2-7.1q2-3.3 5.4-5.2 3.3-1.9 7.4-1.9zm0 3.4q-2.9 0-5.4 1.4-2.5 1.5-4 4-1.4 2.4-1.4 5.3t1.4 5.5 4 4q2.5 1.4 5.4 1.4t5.4-1.5q2.5-1.4 4-4 1.4-2.4 1.4-5.4t-1.5-5.4q-1.4-2.4-4-3.9-2.3-1.4-5.3-1.4zM385 126.2l-5.6-8.8h-8.6v8.8h-4v-28h11q5.3 0 8.2 2.5 3 2.4 3 7 0 3.3-1.7 5.6-1.5 2.4-4.5 3.4l6.5 9.5H385zm-7.2-12.2q3.6 0 5.5-1.6 2-1.6 2-4.7 0-3-2-4.5-1.9-1.5-5.5-1.5h-7V114h7zM415.1 112.5h3.4v10.3q-2 1.7-5 2.7t-5.6 1q-4 0-7.4-2-3.3-1.8-5.3-5.1-1.9-3.3-1.9-7.3t2-7.1q2-3.3 5.3-5.2 3.4-1.9 7.5-1.9 3 0 5.7 1 2.8 1.1 4.9 3l-2.2 2.7q-1.7-1.5-4-2.4-2-.9-4.4-.9-3 0-5.5 1.5t-4 3.9q-1.4 2.5-1.4 5.4t1.5 5.5q1.4 2.5 4 4 2.5 1.4 5.5 1.4 1.7 0 3.5-.5 1.9-.6 3.4-1.7v-8.3zM425.8 98.2h19.4v3.5h-15.6v8.6h14v3.5h-14v8.9h16.1v3.5h-20v-28z" transform="translate(15.5 13.9)"/><g stroke-width="1"><path d="M209.8-20.5q3.9 0 6 1.9 2.2 1.8 2.2 5.2 0 3.5-2.2 5.4-2.1 2-6 2h-5.3V.5h-2.8v-21h8zm-.2 11.8q2.8 0 4.2-1.1 1.4-1.2 1.4-3.5t-1.4-3.4q-1.5-1.2-4.2-1.2h-5v9.2h5zM231-20.7q3 0 5.5 1.4t4 3.9Q242-13 242-10q0 2.9-1.5 5.4-1.5 2.5-4 3.9T230.9.7t-5.5-1.4q-2.6-1.4-4-4-1.5-2.4-1.5-5.3 0-3 1.5-5.4 1.4-2.5 4-3.9t5.5-1.4zm0 2.6q-2.2 0-4.1 1-1.9 1.2-3 3-1 1.8-1 4 0 2.3 1 4.1t3 3q1.9 1 4 1t4-1q2-1.1 3-3 1.1-1.8 1.1-4 0-2.3-1-4-1.1-2-3-3-1.8-1.1-4-1.1zM271-20.5h3l-7 21h-3l-5.5-17.3L253 .5h-3l-7-21h3l5.6 17.9 5.5-18h2.9l5.5 18 5.5-18zM277.2-20.5h14.6v2.6H280v6.5h10.4v2.6h-10.4v6.7h12V.5h-15v-21zM310.3.5l-4.2-6.6h-6.5V.6h-2.8v-21h8.2q4 0 6.1 1.9 2.2 1.8 2.2 5.2 0 2.5-1.2 4.3-1.2 1.7-3.4 2.5l5 7h-3.4zM305-8.7q2.7 0 4.1-1.1 1.5-1.2 1.5-3.5t-1.5-3.4Q307.7-18 305-18h-5.4v9.2h5.4zM318.4-20.5H333v2.6h-11.7v6.5h10.5v2.6h-10.5v6.7h12V.5h-14.9v-21zM346.6-20.5q3 0 5.5 1.4 2.5 1.3 3.9 3.7t1.4 5.4q0 3-1.4 5.4-1.5 2.4-4 3.7-2.4 1.4-5.5 1.4H338v-21h8.6zm0 18.4q2.2 0 4-1 1.8-1 2.8-2.9 1-1.8 1-4t-1-4-2.9-2.8q-1.8-1.1-4-1.1h-5.6v15.8h5.7zM378.3-20.5q3.2 0 5 1.4 2 1.4 2 3.8 0 1.8-1 3.1-1.1 1.2-2.9 1.7 2.2.3 3.4 1.7 1.3 1.4 1.3 3.6 0 2.7-2 4.2T378.5.5h-9.1v-21h9zm-.1 8.9q2 0 3-.8t1-2.4q0-1.5-1-2.3-1-.8-3-.8h-6v6.3h6zm0 9.5q2.3 0 3.6-1 1.4-.8 1.4-2.5 0-1.6-1.4-2.5t-3.6-.9h-6V-2h6zM406.6-20.5l-7.9 13.8V.5h-2.9v-7l-8-14h3l6.5 10.7 6.3-10.7h3z" transform="translate(35.4 37.7)"/></g><path d="M239.5 64.8h8.6l-9.5 28H230l-4.7-18-4.9 18H212l-9.4-28h8.9l5 19.4 5-19.4h8.1l5 19.4 5-19.4zM254.3 64.8h8.3v28h-8.3v-28zM299.3 92.8h-10l-6.5-10.3-3.1 3.4v6.9h-8.4v-28h8.4V76l9.4-11.2h9.6L288.5 76l10.8 16.7zM305.8 64.8h8.3v28h-8.3v-28zM322.9 64.8h8.9l7.5 15.5 7.5-15.5h8.9v28h-7.3V76.2L342 90h-5.4l-6.4-13.8v16.6h-7.3v-28zM364.4 64.8h22.9v6.4h-14.6v4.4h13.2V82h-13.2v4.4h15v6.4h-23.3v-28zM408 64.8q4.5 0 7.9 1.7 3.4 1.7 5.3 5 1.9 3.1 1.9 7.3t-2 7.3-5.4 5q-3.4 1.7-8 1.7h-12v-28H408zm.2 21.5q2.9 0 4.6-2t1.8-5.5-1.9-5.4-4.9-2H404v14.9h4.2zM430.2 64.8h8.3v28h-8.3v-28zM467.7 92.8l-1.6-4.5h-11.3l-1.7 4.5h-8.6l12-28h8.6l11.5 28h-8.9zm-10.6-10.6h6.8l-3.4-9.1-3.4 9.1z" transform="translate(0 -5.8)"/></svg>
